<svg xmlns="http://www.w3.org/2000/svg" xmlns:xlink="http://www.w3.org/1999/xlink" viewBox="0,0,256,256" width="200px" height="200px" fill-rule="nonzero"><g fill="none" fill-rule="nonzero" stroke="none" stroke-width="1" stroke-linecap="butt" stroke-linejoin="miter" stroke-miterlimit="10" stroke-dasharray="" stroke-dashoffset="0" font-family="none" font-weight="none" font-size="none" text-anchor="none" style="mix-blend-mode: normal"><g transform="translate(-1.024,-21.44) scale(2.56,2.56)"><path d="M87.215,55.71c1.135,-2.155 1.785,-4.605 1.785,-7.21c0,-6.621 -4.159,-12.257 -10.001,-14.478c0,-0.007 0.001,-0.014 0.001,-0.022c0,-11.598 -9.402,-21 -21,-21c-9.784,0 -17.981,6.701 -20.313,15.757c-1.476,-0.485 -3.049,-0.757 -4.687,-0.757c-7.692,0 -14.023,5.793 -14.89,13.252c-5.204,1.101 -9.11,5.717 -9.11,11.248c0,6.351 5.149,11.5 11.5,11.5c0.177,0 0.352,-0.012 0.526,-0.022c-0.004,0.175 -0.026,0.346 -0.026,0.522c0,11.322 9.178,20.5 20.5,20.5c6.437,0 12.175,-2.972 15.934,-7.614c2.178,2.225 5.206,3.614 8.566,3.614c4.65,0 8.674,-2.65 10.666,-6.518c1.052,0.335 2.171,0.518 3.334,0.518c6.075,0 11,-4.925 11,-11c0,-3.311 -1.47,-6.273 -3.785,-8.29z" fill="#c7ede6"></path><path d="M73.5,55.5v0.5h-3v-0.5c0,0 -4.242,0 -5.5,0c-2.485,0 -4.5,-2.015 -4.5,-4.5c0,-2.333 1.782,-4.229 4.055,-4.455c-0.022,-0.181 -0.055,-0.358 -0.055,-0.545c0,-2.485 2.015,-4.5 4.5,-4.5c1.438,0 2.703,0.686 3.527,1.736c0.14,-2.636 2.302,-4.736 4.973,-4.736c2.761,0 5,2.239 5,5c0,0.446 -0.077,0.87 -0.187,1.282c0.642,-0.777 1.6,-1.282 2.687,-1.282c1.781,0 3.234,1.335 3.455,3.055c0.181,-0.022 0.358,-0.055 0.545,-0.055c2.485,0 4.5,2.015 4.5,4.5c0,2.485 -2.015,4.5 -4.5,4.5c-2.485,0 -9.5,0 -9.5,0z" fill="#fdfcef"></path><path d="M77.5,38c3.033,0 5.5,2.467 5.5,5.5c0,0.016 0,0.031 0,0.047c0.602,-0.355 1.29,-0.547 2,-0.547c1.831,0 3.411,1.261 3.858,3.005c0.047,-0.003 0.094,-0.005 0.142,-0.005c2.757,0 5,2.243 5,5c0,2.757 -2.243,5 -5,5h-15.5c-0.276,0 -0.5,-0.224 -0.5,-0.5c0,-0.276 0.224,-0.5 0.5,-0.5h15.5c2.206,0 4,-1.794 4,-4c0,-2.206 -1.794,-4 -4,-4c-0.117,0 -0.23,0.017 -0.343,0.032l-0.141,0.019c-0.021,0.003 -0.041,0.004 -0.062,0.004c-0.246,0 -0.462,-0.185 -0.495,-0.437c-0.191,-1.493 -1.463,-2.618 -2.959,-2.618c-0.885,0 -1.723,0.401 -2.301,1.1c-0.098,0.118 -0.241,0.182 -0.386,0.182c-0.078,0 -0.156,-0.018 -0.228,-0.056c-0.209,-0.107 -0.314,-0.346 -0.254,-0.573c0.115,-0.435 0.169,-0.801 0.169,-1.153c0,-2.481 -2.019,-4.5 -4.5,-4.5c-2.381,0 -4.347,1.872 -4.474,4.263c-0.011,0.208 -0.15,0.387 -0.349,0.45c-0.05,0.016 -0.101,0.024 -0.152,0.024c-0.15,0 -0.296,-0.069 -0.392,-0.192c-0.771,-0.982 -1.912,-1.545 -3.133,-1.545c-2.206,0 -4,1.794 -4,4c0,0.117 0.017,0.23 0.032,0.343l0.019,0.141c0.016,0.134 -0.022,0.268 -0.106,0.373c-0.084,0.105 -0.207,0.172 -0.34,0.185c-2.056,0.205 -3.605,1.907 -3.605,3.958c0,2.206 1.794,4 4,4h5.5c0.276,0 0.5,0.224 0.5,0.5c0,0.276 -0.224,0.5 -0.5,0.5h-5.5c-2.757,0 -5,-2.243 -5,-5c0,-2.397 1.689,-4.413 4.003,-4.877c-0.002,-0.041 -0.003,-0.082 -0.003,-0.123c0,-2.757 2.243,-5 5,-5c1.176,0 2.293,0.416 3.183,1.164c0.598,-2.404 2.762,-4.164 5.317,-4.164z" fill="#472b29"></path><path d="M79,45c1.403,0 2.609,0.999 2.913,2.341c0.367,-0.222 0.786,-0.341 1.212,-0.341c1.202,0 2.198,0.897 2.353,2.068c0.203,-0.046 0.396,-0.068 0.585,-0.068c1.529,0 2.811,1.2 2.918,2.732c0.009,0.138 -0.095,0.258 -0.232,0.268c-0.006,0 -0.012,0 -0.018,0c-0.13,0 -0.24,-0.101 -0.249,-0.232c-0.089,-1.271 -1.151,-2.268 -2.419,-2.268c-0.229,0 -0.47,0.042 -0.738,0.127c-0.022,0.007 -0.045,0.01 -0.067,0.01c-0.055,0 -0.11,-0.02 -0.156,-0.054c-0.064,-0.046 -0.102,-0.128 -0.102,-0.208c0,-1.034 -0.841,-1.875 -1.875,-1.875c-0.447,0 -0.885,0.168 -1.231,0.473c-0.047,0.041 -0.106,0.063 -0.165,0.063c-0.032,0 -0.063,-0.006 -0.093,-0.019c-0.088,-0.035 -0.148,-0.117 -0.155,-0.212c-0.104,-1.293 -1.193,-2.305 -2.481,-2.305c-0.208,0 -0.425,0.034 -0.682,0.107c-0.023,0.007 -0.047,0.01 -0.07,0.01c-0.109,0 -0.207,-0.073 -0.239,-0.182c-0.038,-0.133 0.039,-0.271 0.172,-0.309c0.302,-0.086 0.563,-0.126 0.819,-0.126z" fill="#472b29"></path><path d="M65.117,46.5c1.326,0 2.508,0.897 2.874,2.182c0.038,0.133 -0.039,0.271 -0.172,0.309c-0.024,0.006 -0.047,0.009 -0.069,0.009c-0.109,0 -0.209,-0.072 -0.24,-0.182c-0.305,-1.07 -1.289,-1.818 -2.393,-1.818c-0.117,0 -0.23,0.014 -0.342,0.029c-0.012,0.002 -0.023,0.003 -0.035,0.003c-0.121,0 -0.229,-0.092 -0.246,-0.217c-0.019,-0.137 0.077,-0.263 0.214,-0.281c0.134,-0.018 0.27,-0.034 0.409,-0.034z" fill="#472b29"></path><path d="M26.5,73h-10c-0.276,0 -0.5,-0.224 -0.5,-0.5c0,-0.276 0.224,-0.5 0.5,-0.5h10c0.276,0 0.5,0.224 0.5,0.5c0,0.276 -0.223,0.5 -0.5,0.5z" fill="#ffffff"></path><path d="M29.5,70c-0.177,0 -4.823,0 -5,0c-0.276,0 -0.5,0.224 -0.5,0.5c0,0.276 0.224,0.5 0.5,0.5c0.177,0 4.823,0 5,0c0.276,0 0.5,-0.224 0.5,-0.5c0,-0.276 -0.224,-0.5 -0.5,-0.5z" fill="#ffffff"></path><g fill="#ffffff"><path d="M19.5,46h-10c-0.276,0 -0.5,-0.224 -0.5,-0.5c0,-0.276 0.224,-0.5 0.5,-0.5h10c0.276,0 0.5,0.224 0.5,0.5c0,0.276 -0.224,0.5 -0.5,0.5z"></path><path d="M23.5,46h-2c-0.276,0 -0.5,-0.224 -0.5,-0.5c0,-0.276 0.224,-0.5 0.5,-0.5h2c0.276,0 0.5,0.224 0.5,0.5c0,0.276 -0.224,0.5 -0.5,0.5z"></path><path d="M28.5,48h-10c-0.276,0 -0.5,-0.224 -0.5,-0.5c0,-0.276 0.224,-0.5 0.5,-0.5h10c0.276,0 0.5,0.224 0.5,0.5c0,0.276 -0.223,0.5 -0.5,0.5z"></path><path d="M16.5,48h-1c-0.276,0 -0.5,-0.224 -0.5,-0.5c0,-0.276 0.224,-0.5 0.5,-0.5h1c0.276,0 0.5,0.224 0.5,0.5c0,0.276 -0.224,0.5 -0.5,0.5z"></path><path d="M22.5,44h-5c-0.276,0 -0.5,-0.224 -0.5,-0.5c0,-0.276 0.224,-0.5 0.5,-0.5h5c0.276,0 0.5,0.224 0.5,0.5c0,0.276 -0.223,0.5 -0.5,0.5z"></path><path d="M19.5,50h-2c-0.276,0 -0.5,-0.224 -0.5,-0.5c0,-0.276 0.224,-0.5 0.5,-0.5h2c0.276,0 0.5,0.224 0.5,0.5c0,0.276 -0.224,0.5 -0.5,0.5z"></path></g><g><path d="M22.083,80.75c0,0 -1.567,0 -3.5,0c-1.933,0 -3.5,-1.567 -3.5,-3.5c0,-1.781 1.335,-3.234 3.055,-3.455c-0.028,-0.179 -0.055,-0.358 -0.055,-0.545c0,-1.933 1.567,-3.5 3.5,-3.5c1.032,0 1.95,0.455 2.59,1.165c0.384,-1.808 1.987,-3.165 3.91,-3.165c2.209,0 4,1.791 4,4c0,0.191 -0.03,0.374 -0.056,0.558c0.428,-0.344 0.964,-0.558 1.556,-0.558c1.228,0 2.245,0.887 2.455,2.055c0.179,-0.028 0.358,-0.055 0.545,-0.055c1.933,0 3.5,1.567 3.5,3.5c0,1.933 -1.567,3.5 -3.5,3.5c-1.933,0 -7.5,0 -7.5,0v0.5h-7z" fill="#fdfcef"></path><path d="M20.333,76.25c0.138,0 0.25,-0.112 0.25,-0.25c0,-1.223 -0.995,-2.218 -2.218,-2.218c-0.034,0.009 -0.737,-0.001 -1.244,0.136c-0.133,0.036 -0.212,0.173 -0.176,0.306c0.036,0.134 0.173,0.213 0.306,0.176c0.444,-0.12 1.1,-0.12 1.113,-0.118c0.948,0 1.719,0.771 1.719,1.718c0,0.138 0.112,0.25 0.25,0.25z" fill="#472b29"></path><circle cx="27.083" cy="80.75" r="0.5" fill="#472b29"></circle><path d="M18.583,81.25h3.5c0.276,0 0.5,-0.224 0.5,-0.5c0,-0.276 -0.224,-0.5 -0.5,-0.5h-3.5c-1.654,0 -3,-1.346 -3,-3c0,-1.496 1.125,-2.768 2.618,-2.959c0.134,-0.018 0.255,-0.088 0.336,-0.196c0.081,-0.108 0.115,-0.244 0.094,-0.377c-0.023,-0.154 -0.048,-0.308 -0.048,-0.468c0,-1.654 1.346,-3 3,-3c0.85,0 1.638,0.355 2.219,1c0.125,0.139 0.321,0.198 0.5,0.148c0.182,-0.049 0.321,-0.195 0.36,-0.379c0.341,-1.604 1.78,-2.769 3.421,-2.769c1.93,0 3.5,1.57 3.5,3.5c0,0.143 -0.021,0.28 -0.041,0.418c-0.029,0.203 0.063,0.438 0.242,0.54c0.179,0.102 0.396,0.118 0.556,-0.01c0.365,-0.293 0.794,-0.448 1.243,-0.448c0.966,0 1.792,0.691 1.963,1.644c0.048,0.267 0.296,0.446 0.569,0.405c0.154,-0.024 0.308,-0.049 0.468,-0.049c1.654,0 3,1.346 3,3c0,1.654 -1.346,3 -3,3h-7.5c-0.276,0 -0.5,0.224 -0.5,0.5c0,0.276 0.224,0.5 0.5,0.5h7.5c2.206,0 4,-1.794 4,-4c0,-2.206 -1.794,-4 -4,-4c-0.059,0 -0.116,0.002 -0.174,0.006c-0.414,-1.186 -1.537,-2.006 -2.826,-2.006c-0.349,0 -0.689,0.061 -1.011,0.18c-0.165,-2.333 -2.115,-4.18 -4.489,-4.18c-1.831,0 -3.466,1.127 -4.153,2.774c-0.68,-0.498 -1.502,-0.774 -2.347,-0.774c-2.206,0 -4,1.794 -4,4c0,0.048 0.001,0.095 0.004,0.142c-1.743,0.448 -3.004,2.027 -3.004,3.858c0,2.206 1.794,4 4,4z" fill="#472b29"></path><path d="M24.083,80.25c0.159,0 0.841,0 1,0c0.276,0 0.5,0.224 0.5,0.5c0,0.276 -0.224,0.5 -0.5,0.5c-0.159,0 -0.841,0 -1,0c-0.276,0 -0.5,-0.224 -0.5,-0.5c0,-0.276 0.224,-0.5 0.5,-0.5z" fill="#472b29"></path></g><g><path d="M72.62,80c-4.62,3.38 -10.05,5.73 -15.94,6.7c-0.14,0.02 -0.28,0.04 -0.42,0.06c-0.01,0.01 -0.03,0.01 -0.04,0c-0.26,0.04 -0.52,0.08 -0.78,0.11c-0.37,0.05 -0.74,0.1 -1.12,0.13c-1.24,0.13 -2.49,0.2 -3.77,0.2h-0.03c-0.75,0 -1.5,-0.02 -2.24,-0.07c-7,-0.41 -13.48,-2.76 -18.91,-6.5l0.13,-0.13c0,0 5,-3 9,-4c4,-1 4,-1 4,-1h17c0,0 0.48,0.11 1.28,0.31c0.01,0 0.02,0 0.03,0.01c0.07,0.01 0.14,0.03 0.22,0.05c0.63,0.16 1.43,0.37 2.34,0.64h0.01c2.75,0.78 6.44,1.99 9.24,3.49z" fill="#2d80d3"></path><path d="M50.55,87.7c-0.846,0 -1.589,-0.023 -2.303,-0.071c-6.861,-0.402 -13.488,-2.68 -19.16,-6.587l-0.495,-0.341l0.651,-0.63c0.207,-0.124 5.11,-3.05 9.136,-4.057l4.121,-1.014l17.112,0.013c0,0 0.46,0.105 1.229,0.297l0.206,0.049c0.024,0.006 0.05,0.013 0.076,0.02c0.652,0.166 1.439,0.372 2.334,0.636l0.06,0.015c2.666,0.757 6.451,1.983 9.34,3.531l0.7,0.375l-0.641,0.469c-4.767,3.487 -10.353,5.835 -16.154,6.79l-0.266,0.038l-0.227,0.227l-0.198,-0.17c-0.19,0.029 -0.381,0.057 -0.572,0.079c-0.372,0.05 -0.75,0.101 -1.138,0.131c-1.292,0.134 -2.543,0.2 -3.811,0.2zM30.269,80.633c5.383,3.55 11.604,5.621 18.041,5.998c0.696,0.047 1.417,0.069 2.21,0.069c1.263,0 2.479,-0.064 3.748,-0.197c0.383,-0.031 0.742,-0.079 1.102,-0.128c0.267,-0.031 0.521,-0.07 0.774,-0.109l0.243,-0.037l0.013,0.007l0.212,-0.03c5.369,-0.885 10.559,-3.001 15.051,-6.135c-2.675,-1.32 -5.957,-2.379 -8.352,-3.061l-0.082,-0.021c-0.903,-0.268 -1.696,-0.476 -2.321,-0.635c-0.082,-0.021 -0.124,-0.033 -0.167,-0.039l-0.196,-0.049c-0.575,-0.142 -0.965,-0.234 -1.102,-0.266h-16.881l-3.94,0.985c-3.15,0.787 -6.988,2.871 -8.353,3.648z" fill="#472b29"></path><path d="M37.514,30.482c-0.201,0.024 -1.541,0.024 -1.541,0.024l-2.347,1.018c-1.501,3.601 -2.135,7.271 -2,11l3,6l15,-1l6.354,5.978c-0.631,-5.283 -3.242,-8.123 -5.854,-12.478c-0.684,-2.052 -7.813,-7.38 -12.612,-10.542z" fill="#e4d0d1"></path><path d="M62.35,73.44c-2.23,4.25 -5.85,13.06 -5.85,13.06c-3.86,0.83 -7.01,1.17 -8,0c0,0 0.14,-0.19 0.35,-0.53c1.05,-1.63 3.87,-6.58 1.27,-8.97c3.84,-1.13 8.05,-3.08 9.98,-5.28c0.74,-0.84 1.14,-1.72 1.07,-2.6c1.18,0.44 2.72,0.26 1.18,4.32z" fill="#2d80d3"></path><path d="M38,66l-0.25,-20.375c0,0 6.531,-2.563 17.25,0.375c2,7 2,17 2,17l-3,8c0,0 -9.75,6 -15.875,-0.5c-0.25,-3 -0.125,-4.5 -0.125,-4.5z" fill="#f0b88f"></path><path d="M69.081,36.99c0,0 -0.51,-0.437 -1.32,-1.104c-13.823,-1.918 -19.969,-0.345 -22.495,0.316c2.26,1.763 4.007,3.36 4.316,4.287c2.613,4.354 5.223,7.194 5.854,12.478l8.396,7.897c0,0 7.25,-2.875 8.25,-7.875c3.999,-11.999 -3.001,-15.999 -3.001,-15.999z" fill="#e4d0d1"></path><path d="M68.18,36.396c-2.219,-1.827 -6.749,-5.431 -9.68,-6.896c-5.508,-0.918 -18.817,0.657 -21.065,0.927c2.63,1.733 5.075,3.81 7.815,5.948c2.813,-1.736 9.571,-3.223 22.93,0.021z" fill="#edece6"></path><path d="M54,35c0,0 -3,0 -2,2c2,4 5,7 5,7c0,0 6,1 7,7c1,1 0,2 0,2l0.5,7.75c0,0 6.5,2.25 8.5,-9.75c1,-5 1,-9 -2,-12c-3,-3 -4,-3 -4,-3l-12.75,-1" fill="#edece6"></path><path d="M62.5,52.5h5c0.908,0.492 1.261,1.233 1,2.25c-0.236,1.608 -1.836,3.485 -3.5,5.375l-2.082,3.357c0,0 -1.524,-0.041 -0.871,0.012c0.653,0.053 -0.547,3.006 -0.547,3.006l-3,3c0,0 -5,3.25 -12,3.625c-4,-0.25 -4,-1.625 -4,-1.625c0,0 8,0 11,-2c2.152,-2.869 2.246,-8.826 2.127,-11.964c-0.043,-1.141 -0.986,-2.036 -2.127,-2.036v0c0,0 1,-6 -5,-5c3,-2 4,-1 3,-5c3,0 7,1 7,1l4,6" fill="#f0b88f"></path><path d="M68.5,30.5c3,-2 2,-4 2,-4l-2,-3c0,0 1,3 -3,5c-4,2 -1,5 -1,5c0,0 1.369,-1.246 4,-3z" fill="#fe0000"></path><path d="M42,44.625c0,0 -2,2.375 -4,3.375c0,1 1,3 1,3h2l0.875,3.375l1.725,0.213c0,0 -1.6,0.412 -1.6,2.412c0,2 1,3 1,3h2v0c0,0 0.496,-1.606 0,0c-0.256,0.83 -2.847,3 -3.716,3h-0.284c0,0 -1,0 -1,2c-1,2 0,5 0,5l2,-1l-1,4c-3.018,-2.316 -5.846,-4.822 -7,-9l2,-10l-1,-7c0,0 4,-2.75 7,-2.375z" fill="#f0b88f"></path><path d="M37,56c0,0 -0.75,-1.25 0.125,-2.125c0.875,-0.875 1.875,-0.875 1.875,-0.875c0,0 1,0 1,1c0,1 0,2 -1,2c-1,0 -2,0 -2,0z" fill="#ede7eb"></path><path d="M47.5,55.5c-0.474,-0.158 -0.5,-1.5 0,-2c2,-1 4.25,-1 5.625,0.5c1.75,2 -2.125,2 -2.125,2c0,0 -2,0 -3.5,-0.5z" fill="#ede7eb"></path><path d="M64.484,34.19l-0.337,-0.337c-0.06,-0.06 -1.464,-1.487 -1.191,-3.17c0.172,-1.062 0.954,-1.947 2.321,-2.631c2.688,-1.344 2.918,-3.101 2.817,-4.028c-0.03,-0.274 0.13,-0.532 0.389,-0.626c0.262,-0.093 0.552,0.001 0.706,0.231l1.728,2.593c0.08,0.151 1.19,2.474 -2.139,4.693v0c-2.563,1.708 -3.927,2.941 -3.941,2.954zM69.025,25.186c-0.23,1.13 -1.009,2.616 -3.301,3.762c-1.064,0.532 -1.664,1.17 -1.781,1.896c-0.125,0.768 0.306,1.519 0.617,1.944c0.585,-0.49 1.812,-1.47 3.664,-2.704c2.563,-1.708 1.858,-3.299 1.827,-3.366z" fill="#472b29"></path><ellipse cx="39" cy="54.25" rx="1" ry="1.25" fill="#6d3c14"></ellipse><ellipse cx="51.5" cy="54.25" rx="1.5" ry="1.25" fill="#6d3c14"></ellipse><path d="M47,53.25c-0.026,0 -0.053,-0.004 -0.079,-0.013c-0.131,-0.044 -0.202,-0.186 -0.158,-0.316c0.023,-0.068 0.582,-1.671 2.737,-1.671c2.036,0 4.028,0.984 4.112,1.026c0.124,0.062 0.173,0.212 0.112,0.335c-0.061,0.124 -0.21,0.175 -0.335,0.112c-0.02,-0.01 -1.973,-0.974 -3.888,-0.974c-1.799,0 -2.258,1.315 -2.263,1.329c-0.036,0.106 -0.134,0.172 -0.238,0.172z" fill="#472b29"></path><path d="M36.5,53.749h-0.001c-0.138,-0.001 -0.249,-0.111 -0.249,-0.249c0,-0.03 0.007,-0.757 0.626,-1.203c0.589,-0.424 1.499,-0.436 2.703,-0.034c0.131,0.044 0.202,0.186 0.158,0.316c-0.044,0.13 -0.183,0.203 -0.316,0.158c-1.025,-0.342 -1.801,-0.354 -2.247,-0.039c-0.413,0.294 -0.423,0.782 -0.424,0.804c-0.002,0.137 -0.113,0.247 -0.25,0.247z" fill="#472b29"></path><path d="M41.264,61.75h-1.048c-0.579,0 -1.08,-0.396 -1.218,-0.965c-0.229,-0.939 -0.37,-2.459 0.265,-4.364c0.557,-1.671 1.709,-2.169 2.577,-2.293c0.923,-0.133 1.706,0.124 1.739,0.135c0.131,0.044 0.201,0.185 0.158,0.315c-0.044,0.131 -0.187,0.203 -0.316,0.159c-0.113,-0.038 -2.777,-0.881 -3.684,1.842c-0.598,1.792 -0.468,3.212 -0.254,4.087c0.084,0.344 0.386,0.584 0.733,0.584h1.048c0.116,0 0.231,-0.027 0.335,-0.079l1.367,-0.684c0.311,-0.155 0.659,-0.237 1.006,-0.237h0.528c0.38,0 0.696,-0.285 0.744,-0.652l-0.92,-0.921c-0.098,-0.098 -0.098,-0.256 0,-0.354c0.098,-0.098 0.256,-0.098 0.354,0l1,1c0.047,0.047 0.073,0.11 0.073,0.177c0,0.689 -0.561,1.25 -1.25,1.25h-0.528c-0.27,0 -0.541,0.063 -0.783,0.185l-1.367,0.684c-0.173,0.085 -0.366,0.131 -0.559,0.131z" fill="#472b29"></path><path d="M38.961,60.75c-0.477,0 -0.905,-0.266 -1.117,-0.693c-0.213,-0.431 -0.165,-0.938 0.127,-1.32c0.083,-0.109 0.24,-0.131 0.35,-0.048c0.11,0.084 0.131,0.241 0.047,0.351c-0.178,0.234 -0.207,0.532 -0.076,0.796c0.129,0.26 0.379,0.415 0.669,0.415c0.138,0 0.25,0.112 0.25,0.25c0,0.138 -0.112,0.249 -0.25,0.249z" fill="#472b29"></path><path d="M45.5,64.75h-6c-0.138,0 -0.25,-0.112 -0.25,-0.25c0,-0.138 0.112,-0.25 0.25,-0.25h6c0.028,0 2.858,-0.025 3.776,-1.861c0.063,-0.124 0.213,-0.171 0.335,-0.112c0.124,0.062 0.173,0.212 0.112,0.335c-1.056,2.114 -4.094,2.138 -4.223,2.138z" fill="#472b29"></path><path d="M37,54.25c-0.071,0 -0.143,-0.03 -0.192,-0.09c-0.088,-0.105 -0.074,-0.264 0.032,-0.352c0.079,-0.067 1.952,-1.608 3.102,-0.46c0.098,0.098 0.098,0.256 0,0.354c-0.098,0.098 -0.256,0.098 -0.354,0c-0.829,-0.827 -2.412,0.477 -2.428,0.489c-0.046,0.039 -0.103,0.059 -0.16,0.059z" fill="#472b29"></path><path d="M53.5,54.75c-0.091,0 -0.18,-0.051 -0.224,-0.139c-0.255,-0.51 -0.681,-0.927 -1.266,-1.241c-1.115,-0.598 -2.517,-0.587 -3.75,0.029l-0.648,0.324c-0.123,0.061 -0.273,0.011 -0.335,-0.111c-0.062,-0.124 -0.012,-0.274 0.112,-0.336l0.648,-0.324c1.378,-0.688 2.952,-0.698 4.21,-0.023c0.678,0.365 1.175,0.855 1.477,1.46c0.062,0.123 0.012,0.273 -0.112,0.335c-0.036,0.017 -0.074,0.026 -0.112,0.026z" fill="#472b29"></path><path d="M46.031,29.625c0,0 -4.031,0.375 -2.031,2.375c3,2 5.25,3.5 5.125,3.25c-0.125,-0.25 -3.75,1 -3.75,1l-7.987,-5.897c3.9,-0.931 6.718,-1.132 8.643,-0.728z" fill="#e4d0d1"></path><path d="M42,34v1c0,0 2,1 2,4c-1,2 -3,4 -3,4c0,0 -4,-1 -5,0c0,2 0,1 0,1c0,0 6,0 8,-1c2,-1 6,0.276 6,1.776c1.625,0.521 3,0.599 3,0.599c0,0 -4.25,-6.625 -7.125,-8.5c-2.875,-1.875 -3.875,-2.875 -3.875,-2.875z" fill="#edece6"></path><path d="M64.284,61.499l-0.069,-0.998c0.28,-0.02 6.861,-0.565 7.79,-7.071c0.968,-6.773 0.995,-7.89 0.995,-7.934l0.015,-0.117c0.036,-0.149 0.834,-3.76 -3.828,-7.488c-4.531,-3.625 -9.952,-7.294 -10.84,-7.891h-16.768c-0.501,0.16 -3.192,0.977 -5.962,1c-0.406,0.196 -0.729,0.313 -0.992,0.408c-0.833,0.302 -0.92,0.334 -1.641,3.213c-0.879,3.518 -0.974,7.083 -0.984,7.764l2.946,5.892l-0.895,0.447l-3.051,-6.106v-0.118c0,-0.166 0.012,-4.107 1.015,-8.121c0.77,-3.078 0.981,-3.444 2.27,-3.911c0.261,-0.095 0.583,-0.21 0.992,-0.415l0.105,-0.053h0.118c2.88,0 5.813,-0.965 5.842,-0.975l0.158,-0.025h17.151l0.126,0.084c0.06,0.04 6.075,4.058 11.035,8.025c4.927,3.942 4.299,7.912 4.186,8.455c-0.014,0.307 -0.125,1.859 -1.003,8.006c-1.045,7.317 -8.634,7.923 -8.711,7.929z" fill="#472b29"></path><path d="M43.098,49.698l1.322,1.6c0.301,0.364 0.818,0.478 1.232,0.249c0.941,-0.522 2.952,-1.221 6.348,-0.547c3.937,0.781 4.094,0.859 4.094,0.859l-0.795,-1.561c-0.225,-0.225 -0.493,-0.391 -0.795,-0.489c-0.732,-0.237 -2.344,-0.626 -5.294,-0.762c-1.358,-0.062 -2.725,0.123 -4.015,0.553l-1.195,0.4l-0.384,-0.796z" fill="#472b29"></path><path d="M68.384,37.236c-0.157,-0.037 -15.679,-3.676 -23.063,-0.526l-0.393,-0.92c7.688,-3.276 23.038,0.319 23.687,0.474z" fill="#472b29"></path><path d="M42,63v0c0,0.552 -0.448,1 -1,1l-0.67,-0.335c-1.033,-0.517 -2.241,-0.559 -3.311,-0.122c-0.574,0.235 -2.019,0.457 -2.019,0.457c0,0 2.239,-2 2.618,-2h3.382c0.552,0 1,0.448 1,1z" fill="#472b29"></path><circle cx="39.5" cy="54.5" r="0.5" fill="#ffffff"></circle><circle cx="52.531" cy="54.5" r="0.5" fill="#ffffff"></circle><path d="M44,62.467v0.085c0,0.714 0.725,1.197 1.385,0.924c0.925,-0.383 2.069,-0.93 2.615,-1.476c1,-1 2,-1 2,-1h1c-0.44,-0.264 -1.56,-1.264 -2,-1l-0.718,0.431c-1.179,0.708 -2.472,1.207 -3.821,1.477l-0.004,0.001c-0.265,0.053 -0.457,0.287 -0.457,0.558z" fill="#472b29"></path><path d="M51.5,62c-0.128,0 -0.256,-0.049 -0.354,-0.146c-1.588,-1.588 -3.124,-0.166 -3.294,0.001c-0.196,0.194 -0.513,0.193 -0.706,-0.003c-0.194,-0.195 -0.194,-0.511 0,-0.705c0.814,-0.815 2.846,-1.861 4.707,0c0.195,0.195 0.195,0.512 0,0.707c-0.097,0.097 -0.225,0.146 -0.353,0.146z" fill="#472b29"></path><path d="M40.5,51c-0.276,0 -0.5,-0.134 -0.5,-0.299l-0.002,-0.897c0,-0.166 0.223,-0.3 0.5,-0.3v0c0.276,0 0.5,0.134 0.5,0.299l0.002,0.897c0,0.165 -0.223,0.3 -0.5,0.3z" fill="#472b29"></path><rect x="-4.67891" y="65.61314" transform="rotate(-45.001)" width="0.751" height="2.799" fill="#472b29"></rect><path d="M34.976,50c-0.308,0.131 -1.61,-3.068 -1.976,-4l2,1.659z" fill="#472b29"></path><path d="M57.5,47.5c0,0 2,2 2,4v4.586c0,0.265 0.105,0.52 0.293,0.707l0.707,0.707c0,0 0,-4 2,-5c0,-1.426 -2.041,-4.215 -3.5,-5.5c-0.588,-0.518 -1,0 -1,0z" fill="#472b29"></path><path d="M50,44.776c1.625,0.521 3.259,0.565 3.259,0.565c0,0 -3.176,-5.871 -7.384,-8.466" fill="#edece6"></path><path d="M43,67.198c-1.146,0 -2.374,-0.393 -2.579,-0.461c-0.131,-0.044 -0.202,-0.186 -0.158,-0.316c0.044,-0.131 0.186,-0.201 0.316,-0.158c0.794,0.265 3.014,0.79 3.744,0.061c0.098,-0.098 0.256,-0.098 0.354,0c0.098,0.098 0.098,0.256 0,0.354c-0.393,0.391 -1.021,0.52 -1.677,0.52z" fill="#472b29"></path><path d="M50.5,46.5l7.5,1.5l1.016,-1.344c0,0 -7.516,-2.156 -11.516,-1.156c0,1 3,1 3,1z" fill="#f0b88f"></path><path d="M53.076,45.765c-4.883,-7.813 -15.892,-14.86 -16.003,-14.931l0.536,-0.844c0.459,0.292 11.312,7.24 16.314,15.245z" fill="#472b29"></path><path d="M35.5,51.375c0,0 0.5,-1.375 2.5,-0.375c2,1 3,1 3,1v-2h-1c0,0 0,0 -1,0c-1,0 -4,-1 -4,0c0,1 0.5,1.375 0.5,1.375z" fill="#472b29"></path><path d="M66.5,55.75c-0.076,0 -0.151,-0.034 -0.2,-0.1l-0.75,-1c-0.083,-0.111 -0.06,-0.268 0.05,-0.351c0.11,-0.081 0.267,-0.061 0.35,0.05l0.75,1c0.083,0.111 0.06,0.268 -0.05,0.351c-0.045,0.033 -0.098,0.05 -0.15,0.05z" fill="#472b29"></path><path d="M61.5,61.75h-0.597l0.419,-0.426c0.094,-0.096 0.205,-0.277 0.171,-0.356c-0.034,-0.081 -0.281,-0.218 -0.994,-0.218v-0.5c1.337,0 1.653,-1.015 1.727,-1.5h-1.074l1.1,-3.301c0.025,-0.236 0.253,-1.199 2.247,-1.199h2c0.138,0 0.25,0.112 0.25,0.25c0,0.138 -0.112,0.25 -0.25,0.25h-2c-1.692,0 -1.749,0.725 -1.75,0.756l-0.013,0.073l-0.891,2.671h0.903v0.25c0,0.566 -0.249,1.501 -1.072,1.967c0.134,0.08 0.226,0.184 0.278,0.311c0.056,0.135 0.053,0.271 0.021,0.394c0.711,-0.223 1.338,-0.84 1.345,-0.848c0.098,-0.098 0.256,-0.098 0.354,0c0.098,0.098 0.098,0.256 0,0.354c-0.041,0.043 -1.083,1.072 -2.174,1.072z" fill="#472b29"></path><path d="M62.5,63.875h-2c-1.336,0 -1.375,-2.132 -1.375,-2.375c0,-0.207 0.167,-0.375 0.375,-0.375v0c0.207,0 0.375,0.168 0.375,0.375c0.001,0.509 0.16,1.625 0.625,1.625h2c-0.02,0 0.785,-0.166 1.644,-2.743l0.091,-0.147c1.913,-1.912 3.89,-3.89 3.89,-5.734c0,-1.242 -0.418,-1.606 -0.639,-1.625h-4.986c-0.207,0 -0.375,-0.168 -0.375,-0.375c0,-0.207 0.168,-0.375 0.375,-0.375h5c0.056,0 1.375,0.027 1.375,2.375c0,2.133 -2.047,4.202 -4.048,6.203c-1.025,3.017 -2.117,3.171 -2.327,3.171z" fill="#472b29"></path><path d="M41.618,69h0.382c0.552,0 1,0.448 1,1v1c1,1 0.75,2.125 0.75,2.125l-2.75,-0.125v1v0c0.459,0.919 -0.209,2 -1.236,2h-0.764c0,0 -1,2 0,3c-0.895,-0.895 -1.789,-1.789 -1.252,-3.4c0.119,-0.356 0.458,-0.6 0.833,-0.6h0.011c0.647,0 1.067,-0.681 0.778,-1.259l-0.176,-0.352c-0.122,-0.245 -0.122,-0.533 0,-0.778l1.529,-3.058c0.17,-0.339 0.516,-0.553 0.895,-0.553z" fill="#472b29"></path><path d="M63.38,76.5v0.01h-0.01l-6.69,10.19c-0.14,0.02 -0.28,0.04 -0.42,0.06l4.77,-10.89l0.03,-0.06z" fill="#472b29"></path><path d="M54.51,78.22c0.31,0.5 0.49,1.11 0.49,1.78c0,1.66 -1.12,3 -2.5,3c-0.04,0 -0.145,0.2 -0.247,0.421c-0.165,0.353 -0.518,0.579 -0.907,0.579h-1.346c0.1,-0.1 0.9,-4.42 0.46,-5.73c-0.25,-0.75 -0.46,-1.27 -0.46,-1.27c0,0 3,0 5,-1c0,0.98 -0.24,1.72 -0.49,2.22z" fill="#facc5a"></path><path d="M51.346,84.25h-1.951l0.395,-0.393c0.159,-0.499 0.82,-4.355 0.434,-5.509c-0.245,-0.733 -0.453,-1.25 -0.455,-1.255l-0.139,-0.344h0.37c0.029,0 2.965,-0.013 4.888,-0.974l0.362,-0.181v0.406c0,0.983 -0.236,1.728 -0.457,2.207c0.299,0.531 0.457,1.147 0.457,1.793c0,1.745 -1.169,3.173 -2.63,3.247c-0.028,0.049 -0.073,0.134 -0.141,0.279c-0.205,0.44 -0.649,0.724 -1.133,0.724zM50.327,83.75h1.019c0.29,0 0.557,-0.171 0.68,-0.435c0.188,-0.402 0.283,-0.565 0.474,-0.565c1.241,0 2.25,-1.233 2.25,-2.75c0,-0.601 -0.157,-1.171 -0.453,-1.648l-0.074,-0.119l0.063,-0.124c0.182,-0.364 0.394,-0.938 0.45,-1.712c-1.589,0.67 -3.57,0.814 -4.375,0.845c0.085,0.227 0.205,0.556 0.336,0.949c0.369,1.1 -0.074,4.372 -0.37,5.559z" fill="#f96c55"></path><circle cx="53" cy="80" r="1" fill="#f96c55"></circle><path d="M44,73.375l-2.5,3.125c0,0 -1,0 1,2c0,1 0,3 0,3l2,-3c0,0 1.5,-1 1.25,-5" fill="#2d80d3"></path><path d="M48.722,87.363l-0.884,-0.467c1.103,-2.085 3.48,-7.194 1.755,-9.605l-0.566,-0.791h0.973c0.799,0 2.459,-0.58 4.13,-1.444c2.522,-1.295 4.558,-2.91 5.446,-4.322c0.655,-1.042 0.565,-1.477 0.522,-1.585c-0.038,-0.095 -0.113,-0.134 -0.113,-0.134l0.249,-0.969c0.057,0.015 0.565,0.16 0.793,0.732c0.247,0.619 0.043,1.456 -0.604,2.487c-1.412,2.245 -4.551,4.021 -5.835,4.679c-1.423,0.736 -2.79,1.258 -3.789,1.462c1.243,2.857 -0.716,7.385 -2.077,9.957z" fill="#472b29"></path><path d="M63,52.5h-1c0,-2.504 -3.205,-5.132 -3.729,-5.545c-0.842,-0.23 -7.352,-1.955 -13.771,-1.955c-6.66,0 -9.125,2.332 -9.148,2.355c-0.009,0.009 -0.494,0.468 -0.911,0.876l-0.7,-0.713c0.423,-0.415 0.916,-0.882 0.916,-0.882c0.097,-0.098 2.718,-2.636 9.843,-2.636c6.989,0 14.067,1.999 14.137,2.02l0.163,0.08c0.172,0.129 4.2,3.187 4.2,6.4z" fill="#472b29"></path><path d="M60.1,71.72c-1.93,2.2 -6.14,4.15 -9.98,5.28c2.6,2.39 -0.22,7.34 -1.27,8.97c-7.71,-1.25 -6.35,-3.47 -6.35,-3.47c2.183,-2.958 3.716,-6.05 3.5,-9.5l14.54,-4.85c-0.12,1.3 -0.27,2.49 -0.44,3.57z" fill="#f0b88f"></path><path d="M43.5,39.5c0,0.97 -0.46,1.83 -1.17,2.37l-1.89,-1.49l-0.54,2.06c-1.37,-0.27 -2.4,-1.48 -2.4,-2.94c0,-1.66 1.34,-3 3,-3c1.66,0 3,1.34 3,3z" fill="#c06134"></path><circle cx="40.5" cy="39.5" r="0.5" fill="#c06134"></circle><path d="M39.9,42.815c-0.024,0 -0.049,-0.002 -0.073,-0.007c-1.566,-0.31 -2.702,-1.701 -2.702,-3.309c0,-1.861 1.514,-3.375 3.375,-3.375c1.861,0 3.375,1.514 3.375,3.375c0,1.059 -0.48,2.031 -1.318,2.669c-0.136,0.103 -0.325,0.1 -0.459,-0.004l-1.44,-1.136l-0.395,1.506c-0.044,0.169 -0.196,0.281 -0.363,0.281zM40.5,36.875c-1.447,0 -2.625,1.178 -2.625,2.625c0,1.131 0.721,2.123 1.758,2.48l0.444,-1.695c0.032,-0.123 0.124,-0.221 0.244,-0.261c0.12,-0.038 0.252,-0.018 0.352,0.061l1.649,1.301c0.514,-0.487 0.803,-1.16 0.803,-1.886c0,-1.447 -1.178,-2.625 -2.625,-2.625z" fill="#472b29"></path><path d="M42,83.151v-4.446c-1.058,-1.083 -1.404,-1.743 -1.192,-2.254c0.083,-0.199 0.239,-0.328 0.407,-0.395l2.395,-2.994l0.781,0.625l-2.574,3.217c0.104,0.192 0.369,0.574 1.037,1.242l0.146,0.147v1.556l1.223,-1.765c0.003,-0.003 1.252,-0.966 1.028,-4.553l0.998,-0.063c0.234,3.746 -0.998,5.063 -1.379,5.377z" fill="#472b29"></path><g fill="#472b29"><path d="M45.109,73.661c-0.755,0 -1.491,-0.052 -2.191,-0.168c-4.515,-0.752 -7.376,-4.671 -8.679,-6.94c-0.508,-0.886 -0.697,-1.889 -0.546,-2.9c0.36,-2.412 1.066,-6.965 1.785,-10.587c-0.85,-1.863 -0.962,-4.996 -0.976,-5.933l1,-0.016c0.01,0.648 0.101,3.968 0.946,5.659l0.077,0.153l-0.034,0.168c-0.726,3.627 -1.444,8.263 -1.809,10.703c-0.118,0.786 0.029,1.565 0.424,2.254c1.215,2.116 3.868,5.768 7.976,6.452c5.785,0.966 14.626,-2.925 14.715,-2.964c0.119,-0.053 2.888,-1.34 3.819,-5.993l0.98,0.195c-1.039,5.196 -4.26,6.654 -4.396,6.713c-0.327,0.147 -7.283,3.204 -13.091,3.204z"></path></g><g fill="#472b29"><path d="M51.082,87.75c-1.494,0 -2.44,-0.309 -2.964,-0.927c-0.149,-0.177 -0.158,-0.433 -0.021,-0.619c0.006,-0.009 0.136,-0.187 0.328,-0.497c0.914,-1.419 3.696,-6.188 1.357,-8.339c-0.133,-0.122 -0.189,-0.306 -0.148,-0.481c0.041,-0.176 0.173,-0.315 0.346,-0.366c3.417,-1.006 7.772,-2.882 9.745,-5.131c0.685,-0.777 1.003,-1.527 0.947,-2.229c-0.014,-0.171 0.061,-0.336 0.197,-0.439c0.136,-0.102 0.315,-0.127 0.476,-0.069c0.135,0.051 0.275,0.092 0.415,0.133c0.535,0.159 1.2,0.356 1.536,1.033c0.378,0.762 0.23,1.935 -0.478,3.801c-0.007,0.019 -0.015,0.037 -0.024,0.055c-2.194,4.181 -5.794,12.93 -5.831,13.018c-0.063,0.152 -0.196,0.264 -0.357,0.299c-2.356,0.503 -4.167,0.758 -5.524,0.758zM49.165,86.409c1.368,0.801 5.301,0.014 6.974,-0.343c0.601,-1.451 3.747,-8.997 5.755,-12.831c0.707,-1.873 0.666,-2.651 0.506,-2.974c-0.119,-0.24 -0.369,-0.348 -0.757,-0.469c-0.115,0.751 -0.506,1.508 -1.167,2.257c-1.969,2.244 -6.051,4.112 -9.472,5.202c1.893,2.713 -0.528,7.118 -1.732,8.988c-0.039,0.062 -0.074,0.118 -0.107,0.17zM62.35,73.44h0.01z"></path></g></g></g></g><g fill="#000000" fill-rule="nonzero" stroke="none" stroke-width="1" stroke-linecap="butt" stroke-linejoin="miter" stroke-miterlimit="10" stroke-dasharray="" stroke-dashoffset="0" font-family="none" font-weight="none" font-size="none" text-anchor="none" style="mix-blend-mode: normal"><g><path d="M34.163,241.873l-2.43,-6.65h-10.68l-2.39,6.65h-3.47l9.73,-25.48h2.94l9.75,25.48zM26.393,220.543l-4.32,11.92h8.66zM52.413,241.873l-6.59,-8.77l-2.03,2.12v6.65h-3.24v-26.88h3.24v16.26l1.73,-2.08l5.9,-6.23h3.93l-7.36,7.91l8.22,11.02zM62.213,222.943v18.93h-3.23v-18.93zM58.713,217.913v0c0,-0.52 0.16,-0.96333 0.48,-1.33c0.32667,-0.36 0.80333,-0.54 1.43,-0.54c0.63333,0 1.11333,0.18 1.44,0.54c0.32,0.36667 0.48,0.81 0.48,1.33c0,0.52667 -0.16,0.96667 -0.48,1.32c-0.32667,0.34667 -0.80667,0.52 -1.44,0.52c-0.62667,0 -1.10333,-0.17333 -1.43,-0.52c-0.32,-0.35333 -0.48,-0.79333 -0.48,-1.32zM67.393,222.943h3.07l0.1,2.38c1.44667,-1.82 3.33667,-2.73 5.67,-2.73v0c4,0 6.02,2.25667 6.06,6.77v0v12.51h-3.24v-12.53c-0.01333,-1.36667 -0.32667,-2.37667 -0.94,-3.03c-0.61333,-0.65333 -1.56667,-0.98 -2.86,-0.98v0c-1.04667,0 -1.96667,0.28 -2.76,0.84c-0.79333,0.56 -1.41333,1.29667 -1.86,2.21v0v13.49h-3.24zM102.253,241.873h-3.39c-0.18667,-0.37333 -0.34,-1.03667 -0.46,-1.99v0c-1.5,1.56 -3.29667,2.34 -5.39,2.34v0c-1.86667,0 -3.39667,-0.52667 -4.59,-1.58c-1.19333,-1.06 -1.79,-2.4 -1.79,-4.02v0c0,-1.97333 0.74667,-3.50333 2.24,-4.59c1.5,-1.09333 3.61,-1.64 6.33,-1.64v0h3.15v-1.49c0,-1.12667 -0.33667,-2.02667 -1.01,-2.7c-0.68,-0.67333 -1.68,-1.01 -3,-1.01v0c-1.15333,0 -2.12,0.29333 -2.9,0.88c-0.78,0.58 -1.17,1.28667 -1.17,2.12v0h-3.26c0,-0.94667 0.33667,-1.86 1.01,-2.74c0.66667,-0.88 1.57667,-1.57667 2.73,-2.09c1.14667,-0.51333 2.41,-0.77 3.79,-0.77v0c2.18,0 3.88667,0.54333 5.12,1.63c1.24,1.09333 1.88333,2.59667 1.93,4.51v0v8.71c0,1.74 0.22,3.12333 0.66,4.15v0zM93.493,239.403v0c1.01333,0 1.97333,-0.26 2.88,-0.78c0.91333,-0.52667 1.57333,-1.21 1.98,-2.05v0v-3.89h-2.54c-3.96667,0 -5.95,1.16333 -5.95,3.49v0c0,1.01333 0.34,1.80667 1.02,2.38c0.67333,0.56667 1.54333,0.85 2.61,0.85zM107.823,218.353h3.24v4.59h3.53v2.5h-3.53v11.74c0,0.76 0.15667,1.33 0.47,1.71c0.31333,0.38 0.85,0.57 1.61,0.57v0c0.37333,0 0.88667,-0.07 1.54,-0.21v0v2.62c-0.85333,0.23333 -1.68333,0.35 -2.49,0.35v0c-1.44667,0 -2.53667,-0.43667 -3.27,-1.31c-0.73333,-0.87333 -1.1,-2.11667 -1.1,-3.73v0v-11.74h-3.45v-2.5h3.45zM117.163,232.463v-0.23c0,-1.85333 0.36667,-3.52333 1.1,-5.01c0.72667,-1.48 1.74,-2.62333 3.04,-3.43c1.3,-0.8 2.78667,-1.2 4.46,-1.2v0c2.57333,0 4.65667,0.89 6.25,2.67c1.59333,1.78667 2.39,4.16333 2.39,7.13v0v0.22c0,1.84667 -0.35333,3.5 -1.06,4.96c-0.70667,1.46667 -1.71667,2.61 -3.03,3.43c-1.30667,0.81333 -2.81333,1.22 -4.52,1.22v0c-2.56667,0 -4.64667,-0.89333 -6.24,-2.68c-1.59333,-1.78 -2.39,-4.14 -2.39,-7.08zM120.423,232.613v0c0,2.1 0.48667,3.78667 1.46,5.06c0.97333,1.27333 2.27667,1.91 3.91,1.91v0c1.64667,0 2.95333,-0.64667 3.92,-1.94c0.96667,-1.28667 1.45,-3.09 1.45,-5.41v0c0,-2.08 -0.49333,-3.76333 -1.48,-5.05c-0.98,-1.28667 -2.28667,-1.93 -3.92,-1.93v0c-1.6,0 -2.89,0.63333 -3.87,1.9c-0.98,1.27333 -1.47,3.09333 -1.47,5.46zM147.613,222.833v3.01c-0.48667,-0.08 -1.01667,-0.12 -1.59,-0.12v0c-2.12,0 -3.56,0.90333 -4.32,2.71v0v13.44h-3.24v-18.93h3.15l0.05,2.18c1.06667,-1.68667 2.57333,-2.53 4.52,-2.53v0c0.62667,0 1.10333,0.08 1.43,0.24zM178.783,229.183v9.35c-0.86,1.23333 -2.06333,2.15667 -3.61,2.77c-1.54667,0.61333 -3.34667,0.92 -5.4,0.92v0c-2.08,0 -3.92333,-0.48667 -5.53,-1.46c-1.61333,-0.97333 -2.86,-2.36 -3.74,-4.16c-0.88,-1.79333 -1.33,-3.87333 -1.35,-6.24v0v-2.23c0,-3.83333 0.89333,-6.80667 2.68,-8.92c1.79333,-2.11333 4.31,-3.17 7.55,-3.17v0c2.66,0 4.80333,0.68 6.43,2.04c1.62,1.36 2.61,3.28667 2.97,5.78v0h-3.36c-0.62667,-3.36667 -2.63333,-5.05 -6.02,-5.05v0c-2.25333,0 -3.96,0.79 -5.12,2.37c-1.16,1.58 -1.74667,3.87 -1.76,6.87v0v2.08c0,2.86 0.65333,5.13 1.96,6.81c1.30667,1.68667 3.07667,2.53 5.31,2.53v0c1.26,0 2.36,-0.14 3.3,-0.42c0.94667,-0.28 1.73,-0.75 2.35,-1.41v0v-5.73h-5.9v-2.73zM198.963,241.873h-3.4c-0.18667,-0.37333 -0.33667,-1.03667 -0.45,-1.99v0c-1.50667,1.56 -3.30333,2.34 -5.39,2.34v0c-1.86667,0 -3.4,-0.52667 -4.6,-1.58c-1.19333,-1.06 -1.79,-2.4 -1.79,-4.02v0c0,-1.97333 0.75,-3.50333 2.25,-4.59c1.5,-1.09333 3.61,-1.64 6.33,-1.64v0h3.15v-1.49c0,-1.12667 -0.34,-2.02667 -1.02,-2.7c-0.67333,-0.67333 -1.67,-1.01 -2.99,-1.01v0c-1.15333,0 -2.12333,0.29333 -2.91,0.88c-0.78,0.58 -1.17,1.28667 -1.17,2.12v0h-3.25c0,-0.94667 0.33333,-1.86 1,-2.74c0.67333,-0.88 1.58333,-1.57667 2.73,-2.09c1.15333,-0.51333 2.41667,-0.77 3.79,-0.77v0c2.18,0 3.89,0.54333 5.13,1.63c1.23333,1.09333 1.87333,2.59667 1.92,4.51v0v8.71c0,1.74 0.22333,3.12333 0.67,4.15v0zM190.193,239.403v0c1.01333,0 1.97667,-0.26 2.89,-0.78c0.90667,-0.52667 1.56667,-1.21 1.98,-2.05v0v-3.89h-2.54c-3.96667,0 -5.95,1.16333 -5.95,3.49v0c0,1.01333 0.33667,1.80667 1.01,2.38c0.68,0.56667 1.55,0.85 2.61,0.85zM203.353,222.943h3.06l0.09,2.1c1.38667,-1.63333 3.26,-2.45 5.62,-2.45v0c2.64667,0 4.45,1.01333 5.41,3.04v0c0.62667,-0.90667 1.44333,-1.64 2.45,-2.2c1.01333,-0.56 2.20667,-0.84 3.58,-0.84v0c4.15333,0 6.26667,2.19667 6.34,6.59v0v12.69h-3.24v-12.49c0,-1.35333 -0.31,-2.36667 -0.93,-3.04c-0.61333,-0.67333 -1.65,-1.01 -3.11,-1.01v0c-1.2,0 -2.19667,0.36 -2.99,1.08c-0.79333,0.72 -1.25667,1.68667 -1.39,2.9v0v12.56h-3.25v-12.41c0,-2.75333 -1.34667,-4.13 -4.04,-4.13v0c-2.12667,0 -3.58,0.90667 -4.36,2.72v0v13.82h-3.24zM242.643,242.223v0c-2.56667,0 -4.65667,-0.84333 -6.27,-2.53c-1.60667,-1.68667 -2.41,-3.94 -2.41,-6.76v0v-0.6c0,-1.87333 0.35667,-3.55 1.07,-5.03c0.72,-1.47333 1.72333,-2.62667 3.01,-3.46c1.29333,-0.83333 2.69333,-1.25 4.2,-1.25v0c2.46,0 4.37333,0.81 5.74,2.43c1.36,1.62 2.04,3.94 2.04,6.96v0v1.35h-12.82c0.04667,1.86667 0.59,3.37333 1.63,4.52c1.04667,1.15333 2.37333,1.73 3.98,1.73v0c1.14667,0 2.11667,-0.23333 2.91,-0.7c0.79333,-0.46667 1.48667,-1.08667 2.08,-1.86v0l1.98,1.54c-1.58667,2.44 -3.96667,3.66 -7.14,3.66zM242.243,225.253v0c-1.30667,0 -2.40333,0.47333 -3.29,1.42c-0.88667,0.95333 -1.43667,2.28667 -1.65,4v0h9.49v-0.24c-0.09333,-1.64667 -0.53667,-2.92333 -1.33,-3.83c-0.79333,-0.9 -1.86667,-1.35 -3.22,-1.35z"></path></g></g></svg>