<svg xmlns="http://www.w3.org/2000/svg" xmlns:xlink="http://www.w3.org/1999/xlink" viewBox="0,0,256,256" width="150px" height="150px" fill-rule="nonzero"><g transform="translate(20.48,20.48) scale(0.84,0.84)"><g fill="#000000" fill-rule="nonzero" stroke="none" stroke-width="1" stroke-linecap="butt" stroke-linejoin="miter" stroke-miterlimit="10" stroke-dasharray="" stroke-dashoffset="0" font-family="none" font-weight="none" font-size="none" text-anchor="none" style="mix-blend-mode: normal"><g transform="translate(0,-18.944) scale(5.12,5.12)"><path d="M25,2c-12.67336,0 -23,10.32664 -23,23c0,12.67336 10.32664,23 23,23c12.67336,0 23,-10.32664 23,-23c0,-12.67336 -10.32664,-23 -23,-23zM25,4c11.58864,0 21,9.41136 21,21c0,11.58864 -9.41136,21 -21,21c-11.58864,0 -21,-9.41136 -21,-21c0,-11.58864 9.41136,-21 21,-21zM25,6c-4.47632,0 -8.59836,1.57028 -11.84766,4.16992l-0.87109,0.69727l26.85156,26.85156l0.69727,-0.87109c2.59965,-3.24929 4.16992,-7.37133 4.16992,-11.84766c0,-10.4674 -8.5326,-19 -19,-19zM25,8c9.3826,0 17,7.6174 17,17c0,3.59687 -1.25181,6.84225 -3.16602,9.5918l-23.42578,-23.42578c2.74955,-1.91421 5.99493,-3.16602 9.5918,-3.16602zM10.86719,12.28125l-0.69727,0.87109c-2.59965,3.24929 -4.16992,7.37133 -4.16992,11.84766c0,10.4674 8.5326,19 19,19c4.47632,0 8.59836,-1.57028 11.84766,-4.16992l0.87109,-0.69727zM11.16602,15.4082l23.42578,23.42578c-2.74955,1.91421 -5.99493,3.16602 -9.5918,3.16602c-9.3826,0 -17,-7.6174 -17,-17c0,-3.59687 1.25181,-6.84225 3.16602,-9.5918z"></path></g></g><g fill="#000000" fill-rule="nonzero" stroke="none" stroke-width="1" stroke-linecap="butt" stroke-linejoin="miter" stroke-miterlimit="10" stroke-dasharray="" stroke-dashoffset="0" font-family="none" font-weight="none" font-size="none" text-anchor="none" style="mix-blend-mode: normal"><g><path d="M91.173,228.822v3.95h-11.7v32.45h-4.78v-32.45h-11.67v-3.95zM114.573,265.222h-4.85c-0.26667,-0.53333 -0.48333,-1.48333 -0.65,-2.85v0c-2.15333,2.23333 -4.72,3.35 -7.7,3.35v0c-2.66667,0 -4.85667,-0.75333 -6.57,-2.26c-1.70667,-1.50667 -2.56,-3.42 -2.56,-5.74v0c0,-2.81333 1.07,-5 3.21,-6.56c2.14667,-1.56 5.16,-2.34 9.04,-2.34v0h4.5v-2.13c0,-1.61333 -0.48333,-2.9 -1.45,-3.86c-0.96667,-0.95333 -2.39,-1.43 -4.27,-1.43v0c-1.65333,0 -3.03667,0.41667 -4.15,1.25c-1.12,0.83333 -1.68,1.84 -1.68,3.02v0h-4.65c0,-1.34667 0.48,-2.65 1.44,-3.91c0.96,-1.26 2.26,-2.25667 3.9,-2.99c1.64,-0.73333 3.44333,-1.1 5.41,-1.1v0c3.11333,0 5.55667,0.78 7.33,2.34c1.76667,1.56 2.68333,3.70333 2.75,6.43v0v12.46c0,2.48 0.31667,4.45333 0.95,5.92v0zM102.043,261.702v0c1.45333,0 2.83,-0.37667 4.13,-1.13c1.3,-0.74667 2.24,-1.72 2.82,-2.92v0v-5.55h-3.62c-5.66667,0 -8.5,1.65667 -8.5,4.97v0c0,1.45333 0.48333,2.58667 1.45,3.4c0.96667,0.82 2.20667,1.23 3.72,1.23zM143.773,251.602v0.4c0,4.13333 -0.95,7.45333 -2.85,9.96c-1.9,2.50667 -4.45,3.76 -7.65,3.76v0c-3.42,0 -6.06333,-1.20667 -7.93,-3.62v0l-0.22,3.12h-4.25v-38.4h4.62v14.33c1.86667,-2.32 4.44333,-3.48 7.73,-3.48c3.28,0 5.85667,1.24333 7.73,3.73c1.88,2.48 2.82,5.88 2.82,10.2zM139.143,251.472v0c0,-3.14667 -0.60667,-5.58 -1.82,-7.3c-1.22,-1.71333 -2.97,-2.57 -5.25,-2.57v0c-3.05333,0 -5.24667,1.41667 -6.58,4.25v0v11.7c1.42,2.83333 3.63,4.25 6.63,4.25v0c2.21333,0 3.93667,-0.86 5.17,-2.58c1.23333,-1.71333 1.85,-4.29667 1.85,-7.75zM148.373,251.772v-0.32c0,-2.65333 0.52,-5.03667 1.56,-7.15c1.04,-2.12 2.49,-3.75333 4.35,-4.9c1.86,-1.15333 3.98,-1.73 6.36,-1.73v0c3.68667,0 6.66667,1.27667 8.94,3.83c2.27333,2.54667 3.41,5.93667 3.41,10.17v0v0.33c0,2.63333 -0.50333,4.99333 -1.51,7.08c-1.00667,2.09333 -2.45,3.72333 -4.33,4.89c-1.87333,1.16667 -4.02667,1.75 -6.46,1.75v0c-3.66667,0 -6.63667,-1.27333 -8.91,-3.82c-2.27333,-2.55333 -3.41,-5.93 -3.41,-10.13zM153.023,252.002v0c0,3 0.69333,5.40667 2.08,7.22c1.39333,1.82 3.25667,2.73 5.59,2.73v0c2.35333,0 4.22,-0.92333 5.6,-2.77c1.38667,-1.84 2.08,-4.41667 2.08,-7.73v0c0,-2.96667 -0.70667,-5.37333 -2.12,-7.22c-1.40667,-1.84 -3.27667,-2.76 -5.61,-2.76v0c-2.28,0 -4.12,0.91 -5.52,2.73c-1.4,1.81333 -2.1,4.41333 -2.1,7.8zM177.573,251.772v-0.32c0,-2.65333 0.52,-5.03667 1.56,-7.15c1.04,-2.12 2.49,-3.75333 4.35,-4.9c1.86,-1.15333 3.98,-1.73 6.36,-1.73v0c3.68667,0 6.66667,1.27667 8.94,3.83c2.27333,2.54667 3.41,5.93667 3.41,10.17v0v0.33c0,2.63333 -0.50333,4.99333 -1.51,7.08c-1.00667,2.09333 -2.45,3.72333 -4.33,4.89c-1.87333,1.16667 -4.02667,1.75 -6.46,1.75v0c-3.66667,0 -6.63667,-1.27333 -8.91,-3.82c-2.27333,-2.55333 -3.41,-5.93 -3.41,-10.13zM182.223,252.002v0c0,3 0.69333,5.40667 2.08,7.22c1.39333,1.82 3.25667,2.73 5.59,2.73v0c2.35333,0 4.22,-0.92333 5.6,-2.77c1.38667,-1.84 2.08,-4.41667 2.08,-7.73v0c0,-2.96667 -0.70667,-5.37333 -2.12,-7.22c-1.40667,-1.84 -3.27667,-2.76 -5.61,-2.76v0c-2.28,0 -4.12,0.91 -5.52,2.73c-1.4,1.81333 -2.1,4.41333 -2.1,7.8z"></path></g></g></g></svg>