<?xml version="1.0" encoding="UTF-8"?>
<!DOCTYPE svg PUBLIC "-//W3C//DTD SVG 1.1//EN" "http://www.w3.org/Graphics/SVG/1.1/DTD/svg11.dtd">
<svg xmlns="http://www.w3.org/2000/svg" version="1.1" width="600px" height="500px" style="shape-rendering:geometricPrecision; text-rendering:geometricPrecision; image-rendering:optimizeQuality; fill-rule:evenodd; clip-rule:evenodd" xmlns:xlink="http://www.w3.org/1999/xlink">
<g><path style="opacity:0.927" fill="#fefffe" d="M 288.5,55.5 C 315.247,53.0173 339.247,59.8506 360.5,76C 366.601,80.3595 366.934,85.0262 361.5,90C 359.5,90.6667 357.5,90.6667 355.5,90C 330.096,68.9319 301.763,63.9319 270.5,75C 262.49,78.6679 255.156,83.3346 248.5,89C 240.081,92.241 236.248,89.4076 237,80.5C 251.543,66.7107 268.71,58.3774 288.5,55.5 Z"/></g>
<g><path style="opacity:0.933" fill="#fefffe" d="M 289.5,80.5 C 311.289,77.7339 330.456,83.4006 347,97.5C 348.815,103.518 346.649,107.185 340.5,108.5C 333.821,104.159 326.821,100.325 319.5,97C 307.156,92.414 294.822,92.414 282.5,97C 275.544,100.145 268.877,103.811 262.5,108C 255.529,107.929 253.029,104.429 255,97.5C 265.042,88.7288 276.542,83.0621 289.5,80.5 Z"/></g>
<g><path style="opacity:0.921" fill="#fefffe" d="M 296.5,104.5 C 308.661,103.722 319.494,107.055 329,114.5C 331.166,122.671 328,126.171 319.5,125C 306.862,116.389 294.195,116.389 281.5,125C 275.719,126.609 272.385,124.442 271.5,118.5C 271.848,116.303 272.848,114.47 274.5,113C 281.29,108.464 288.623,105.631 296.5,104.5 Z"/></g>
<g><path style="opacity:0.913" fill="#fefffe" d="M 297.5,129.5 C 308.787,129.066 313.287,134.399 311,145.5C 306.313,151.935 300.479,153.102 293.5,149C 290.019,144.925 289.186,140.425 291,135.5C 292.494,132.686 294.66,130.686 297.5,129.5 Z"/></g>
<g><path style="opacity:0.978" fill="#fefffe" d="M 144.5,150.5 C 174.169,150.333 203.835,150.5 233.5,151C 259.799,156.632 276.299,172.465 283,198.5C 284.245,224.141 284.912,249.808 285,275.5C 290.805,286.738 299.305,289.571 310.5,284C 313.869,281.635 316.036,278.468 317,274.5C 317.333,251.167 317.667,227.833 318,204.5C 321.051,180.241 333.884,163.408 356.5,154C 360.42,152.687 364.42,151.687 368.5,151C 398.167,150.333 427.833,150.333 457.5,151C 511.44,158.537 549.607,187.037 572,236.5C 590.772,289.117 582.772,337.117 548,380.5C 523.471,407.515 492.971,423.015 456.5,427C 434.436,427.967 412.436,427.634 390.5,426C 378.591,418.875 375.758,409.041 382,396.5C 384.592,393.238 387.759,390.738 391.5,389C 413.185,388.817 434.852,388.15 456.5,387C 494.691,380.486 521.191,359.319 536,323.5C 549.17,283.019 541.004,247.519 511.5,217C 493.454,200.423 472.12,191.423 447.5,190C 435.667,189.833 423.833,189.667 412,189.5C 398.456,189.38 384.956,189.88 371.5,191C 364.572,193.594 360.072,198.427 358,205.5C 357.667,229.5 357.333,253.5 357,277.5C 352.369,304.13 336.869,320.297 310.5,326C 283.428,329.215 263.262,319.048 250,295.5C 247.558,290.067 245.892,284.4 245,278.5C 244.667,254.5 244.333,230.5 244,206.5C 241.595,196.761 235.429,191.261 225.5,190C 198.476,189.094 171.476,189.428 144.5,191C 96.3167,200.85 68.15,230.016 60,278.5C 57.7183,320.49 74.2183,352.656 109.5,375C 120.41,381.192 132.077,385.192 144.5,387C 166.149,388.133 187.816,388.8 209.5,389C 218.123,392.129 222.79,398.295 223.5,407.5C 222.925,417.512 217.925,424.012 208.5,427C 187.5,427.667 166.5,427.667 145.5,427C 88.5972,419.754 49.4306,389.587 28,336.5C 9.68501,276.801 23.185,225.634 68.5,183C 90.7001,164.731 116.033,153.897 144.5,150.5 Z"/></g>
<g><path style="opacity:0.975" fill="#fefffe" d="M 410.5,234.5 C 429.121,232.797 439.787,241.13 442.5,259.5C 441.723,271.571 435.723,279.738 424.5,284C 409.767,287.217 399.267,282.05 393,268.5C 389.08,252.004 394.914,240.67 410.5,234.5 Z"/></g>
<g><path style="opacity:0.976" fill="#fefffe" d="M 469.5,234.5 C 484.609,232.461 494.776,238.461 500,252.5C 503.201,267.569 497.701,278.069 483.5,284C 458.572,286.281 448.072,275.115 452,250.5C 455.503,242.492 461.336,237.159 469.5,234.5 Z"/></g>
<g><path style="opacity:0.984" fill="#fefffe" d="M 147.5,238.5 C 158.637,238.145 166.137,243.145 170,253.5C 170.499,258.823 170.666,264.156 170.5,269.5C 175.844,269.334 181.177,269.501 186.5,270C 199.754,275.409 203.921,284.909 199,298.5C 196.28,303.551 192.113,306.718 186.5,308C 181.177,308.499 175.844,308.666 170.5,308.5C 170.666,313.844 170.499,319.177 170,324.5C 164.597,337.752 155.097,341.919 141.5,337C 136.449,334.28 133.282,330.113 132,324.5C 131.501,319.177 131.334,313.844 131.5,308.5C 126.156,308.666 120.823,308.499 115.5,308C 102.922,303.345 98.4221,294.512 102,281.5C 104.562,275.939 108.728,272.106 114.5,270C 120.157,269.501 125.824,269.334 131.5,269.5C 131.334,263.824 131.501,258.157 132,252.5C 134.877,245.114 140.044,240.448 147.5,238.5 Z"/></g>
<g><path style="opacity:0.972" fill="#fefffe" d="M 414.5,292.5 C 435.545,294.374 444.379,305.707 441,326.5C 435.545,339.648 425.712,345.148 411.5,343C 396.534,338.348 390.034,328.181 392,312.5C 395.563,301.316 403.063,294.65 414.5,292.5 Z"/></g>
<g><path style="opacity:0.974" fill="#fefffe" d="M 472.5,292.5 C 489.755,292.758 499.422,301.424 501.5,318.5C 498.624,336.218 488.291,344.384 470.5,343C 455.317,338.481 448.817,328.314 451,312.5C 453.899,301.151 461.066,294.484 472.5,292.5 Z"/></g>
</svg>
